<?xml version="1.0" encoding="UTF-8"?>
<svg id="Layer_2" data-name="Layer 2" xmlns="http://www.w3.org/2000/svg" xmlns:xlink="http://www.w3.org/1999/xlink" viewBox="0 0 90.71 143.74">
  <defs>
    <style>
      .cls-1 {
        fill: #806028;
      }

      .cls-1, .cls-2, .cls-3, .cls-4, .cls-5, .cls-6, .cls-7, .cls-8, .cls-9, .cls-10, .cls-11, .cls-12, .cls-13, .cls-14, .cls-15, .cls-16, .cls-17, .cls-18 {
        stroke-width: 0px;
      }

      .cls-2 {
        fill: #ab8136;
      }

      .cls-3 {
        fill: #9e7732;
      }

      .cls-4 {
        fill: #997330;
      }

      .cls-19 {
        clip-path: url(#clippath-2);
      }

      .cls-20 {
        isolation: isolate;
      }

      .cls-5 {
        fill: #946f2e;
      }

      .cls-6 {
        fill: #c2923d;
      }

      .cls-7 {
        fill: none;
      }

      .cls-8 {
        fill: #b38638;
      }

      .cls-9 {
        fill: #bd8e3b;
      }

      .cls-10 {
        fill: #a87f35;
      }

      .cls-11 {
        fill: #c7963e;
      }

      .cls-12 {
        fill: #a37b33;
      }

      .cls-21 {
        clip-path: url(#clippath-1);
      }

      .cls-22 {
        clip-path: url(#clippath-4);
      }

      .cls-13 {
        fill: #8f6c2d;
      }

      .cls-23 {
        clip-path: url(#clippath);
      }

      .cls-24 {
        clip-path: url(#clippath-3);
      }

      .cls-14 {
        fill: #b88a3a;
      }

      .cls-15 {
        fill: #8a682b;
      }

      .cls-16 {
        fill: #85642a;
      }

      .cls-17 {
        fill: #ffc050;
      }

      .cls-18 {
        fill: #ad8336;
      }
    </style>
    <clipPath id="clippath">
      <path class="cls-7" d="M79.66,12.13l2.39,2.43c-.43-.44-.88-.87-1.34-1.29l-2.39-2.43c.46.42.9.85,1.34,1.29Z"/>
    </clipPath>
    <clipPath id="clippath-1">
      <path class="cls-7" d="M58.59,27.45l2.39,2.43c.06.06.13.13.19.2,3.2,3.37,4.71,7.91,4.54,13.6-.24,7.9-3.45,13.33-9.63,16.31-6.17,2.99-14.89,4.47-26.16,4.47l-2.39-2.43c11.27,0,19.99-1.48,26.16-4.47,6.18-2.98,9.39-8.41,9.63-16.31.17-5.69-1.34-10.23-4.54-13.6-.06-.07-.13-.13-.19-.2Z"/>
    </clipPath>
    <clipPath id="clippath-2">
      <path class="cls-7" d="M2.81,43.28l-2.39-2.43c.11-7.89,2.01-14.95,5.69-21.17,3.69-6.21,8.98-11.06,15.89-14.56C28.9,1.63,36.94-.12,46.14-.12c13.46,0,24.19,3.65,32.18,10.96l2.39,2.43c-7.99-7.31-18.72-10.96-32.18-10.96-9.2,0-17.24,1.75-24.14,5.24-6.91,3.5-12.19,8.35-15.89,14.56-3.68,6.21-5.58,13.28-5.69,21.17Z"/>
    </clipPath>
    <clipPath id="clippath-3">
      <path class="cls-7" d="M32.55,112.02l-2.39-2.43c4.79,0,8.69,1.52,11.7,4.56l2.39,2.43c-3.01-3.04-6.92-4.56-11.7-4.56Z"/>
    </clipPath>
    <clipPath id="clippath-4">
      <path class="cls-7" d="M19.4,139.13l-2.39-2.43c-2.97-3.01-4.37-6.74-4.24-11.2s1.83-8.31,5.1-11.35,7.35-4.56,12.28-4.56l2.39,2.43c-4.93,0-9.02,1.52-12.28,4.56s-4.96,6.82-5.1,11.35,1.27,8.18,4.24,11.2Z"/>
    </clipPath>
  </defs>
  <g id="Layer_1-2" data-name="Layer 1">
    <g>
      <g class="cls-20">
        <g class="cls-20">
          <g class="cls-23">
            <g class="cls-20">
              <path class="cls-6" d="M80.71,13.28l-2.39-2.43s.05.04.07.06l2.39,2.43s-.05-.04-.07-.06"/>
              <path class="cls-11" d="M80.78,13.34l-2.39-2.43c.43.4.86.81,1.27,1.22l2.39,2.43c-.41-.42-.83-.82-1.27-1.22"/>
            </g>
          </g>
        </g>
        <g class="cls-20">
          <g class="cls-21">
            <g class="cls-20">
              <path class="cls-12" d="M29.92,64.44l-2.39-2.43c1.99,0,3.89-.05,5.72-.14l2.39,2.43c-1.83.09-3.74.14-5.72.14"/>
              <path class="cls-3" d="M35.64,64.31l-2.39-2.43c2.33-.12,4.53-.31,6.6-.58l2.39,2.43c-2.07.27-4.27.46-6.6.58"/>
              <path class="cls-4" d="M42.24,63.73l-2.39-2.43c1.74-.22,3.38-.5,4.94-.83l2.39,2.43c-1.56.33-3.2.61-4.94.83"/>
              <path class="cls-5" d="M47.18,62.9l-2.39-2.43c1.39-.29,2.7-.63,3.95-1.01l2.39,2.43c-1.24.38-2.56.72-3.95,1.01"/>
              <path class="cls-13" d="M51.13,61.89l-2.39-2.43c1.18-.36,2.3-.76,3.36-1.2l2.39,2.43c-1.05.44-2.17.84-3.36,1.2"/>
              <path class="cls-15" d="M54.49,60.69l-2.39-2.43c.55-.23,1.08-.47,1.59-.71.4-.19.78-.39,1.15-.6l2.39,2.43c-.37.21-.76.41-1.15.6-.51.25-1.04.49-1.59.71"/>
              <path class="cls-16" d="M57.23,59.37l-2.39-2.43c5.43-3.08,8.25-8.31,8.48-15.71.17-5.69-1.34-10.23-4.54-13.6-.06-.07-.13-.13-.19-.2l2.39,2.43c.06.06.13.13.19.2,3.2,3.37,4.71,7.91,4.54,13.6-.23,7.39-3.05,12.62-8.48,15.71"/>
            </g>
          </g>
        </g>
        <polygon class="cls-2" points="21.19 64.44 18.8 62.01 27.53 62.01 29.92 64.44 21.19 64.44"/>
        <polygon class="cls-1" points="21.15 97.46 18.75 95.03 18.8 62.01 21.19 64.44 21.15 97.46"/>
        <g class="cls-20">
          <g class="cls-19">
            <g class="cls-20">
              <path class="cls-16" d="M2.81,43.28l-2.39-2.43c.11-7.89,2.01-14.95,5.69-21.17,3.35-5.65,8.03-10.16,14.03-13.57l2.39,2.43c-6.01,3.41-10.68,7.92-14.03,13.57-3.68,6.21-5.58,13.28-5.69,21.17"/>
              <path class="cls-15" d="M22.53,8.54l-2.39-2.43c.6-.34,1.22-.67,1.85-.99.98-.49,1.98-.95,3-1.38l2.39,2.43c-1.02.42-2.02.88-3,1.38-.63.32-1.25.65-1.85.99"/>
              <path class="cls-13" d="M27.38,6.17l-2.39-2.43c1.38-.57,2.79-1.08,4.25-1.52l2.39,2.43c-1.46.44-2.88.95-4.25,1.52"/>
              <path class="cls-5" d="M31.64,4.65l-2.39-2.43c1.36-.41,2.76-.77,4.2-1.08l2.39,2.43c-1.43.3-2.83.66-4.2,1.08"/>
              <path class="cls-4" d="M35.83,3.57l-2.39-2.43c1.43-.3,2.89-.55,4.39-.75l2.39,2.43c-1.5.19-2.96.44-4.39.75"/>
              <path class="cls-3" d="M40.22,2.83l-2.39-2.43c1.56-.2,3.17-.34,4.81-.43l2.39,2.43c-1.64.08-3.25.23-4.81.43"/>
              <path class="cls-12" d="M45.04,2.4L42.64-.03c1.15-.06,2.31-.09,3.49-.09.65,0,1.29,0,1.93.03l2.39,2.43c-.64-.02-1.28-.03-1.93-.03-1.18,0-2.35.03-3.49.09"/>
              <path class="cls-10" d="M50.46,2.34L48.07-.09c1.74.05,3.43.16,5.08.33l2.39,2.43c-1.65-.17-3.34-.28-5.08-.33"/>
              <path class="cls-18" d="M55.54,2.67l-2.39-2.43c1.56.16,3.08.39,4.56.67l2.39,2.43c-1.48-.28-2.99-.5-4.56-.67"/>
              <path class="cls-8" d="M60.1,3.33l-2.39-2.43c1.46.28,2.88.61,4.26,1l2.39,2.43c-1.38-.39-2.8-.72-4.26-1"/>
              <path class="cls-14" d="M64.36,4.33l-2.39-2.43c1.45.41,2.85.88,4.21,1.42l2.39,2.43c-1.36-.53-2.76-1.01-4.21-1.42"/>
              <path class="cls-9" d="M68.57,5.75l-2.39-2.43c1.59.63,3.12,1.34,4.59,2.14l2.39,2.43c-1.47-.8-2.99-1.51-4.59-2.14"/>
              <path class="cls-6" d="M73.16,7.89l-2.39-2.43c2.74,1.5,5.26,3.29,7.55,5.39l2.39,2.43c-2.29-2.1-4.81-3.89-7.55-5.39"/>
            </g>
          </g>
        </g>
        <path class="cls-17" d="M80.71,13.28c8,7.32,11.81,17.38,11.41,30.2s-4.77,22.36-13.13,29.04c-8.36,6.67-19.27,10-32.73,10l-1.24,14.95h-23.89s.04-33.02.04-33.02h8.73c11.27,0,19.99-1.48,26.16-4.47,6.18-2.98,9.39-8.41,9.63-16.31.17-5.69-1.34-10.23-4.54-13.6-3.19-3.36-7.65-5.04-13.34-5.04s-10.63,1.62-14.04,4.86c-3.4,3.24-5.18,7.7-5.36,13.39H2.81c.11-7.89,2.01-14.95,5.69-21.17,3.69-6.21,8.98-11.06,15.89-14.56,6.91-3.49,14.94-5.24,24.14-5.24,13.46,0,24.19,3.65,32.18,10.96Z"/>
      </g>
      <g class="cls-20">
        <g class="cls-20">
          <g class="cls-24">
            <g class="cls-20">
              <path class="cls-12" d="M32.55,112.02l-2.39-2.43c.2,0,.39,0,.59,0l2.39,2.43c-.19,0-.39,0-.59,0"/>
              <path class="cls-10" d="M33.14,112.03l-2.39-2.43c.54.01,1.07.05,1.59.1l2.39,2.43c-.52-.05-1.05-.09-1.59-.1"/>
              <path class="cls-18" d="M34.73,112.13l-2.39-2.43c.5.05,1,.13,1.48.22l2.39,2.43c-.48-.09-.97-.16-1.48-.22"/>
              <path class="cls-8" d="M36.21,112.35l-2.39-2.43c.49.09.97.2,1.43.34l2.39,2.43c-.47-.13-.94-.24-1.43-.34"/>
              <path class="cls-14" d="M37.64,112.69l-2.39-2.43c.5.14.99.31,1.47.49l2.39,2.43c-.48-.19-.96-.35-1.47-.49"/>
              <path class="cls-9" d="M39.11,113.18l-2.39-2.43c.57.23,1.13.48,1.66.77l2.39,2.43c-.53-.29-1.09-.55-1.66-.77"/>
              <path class="cls-6" d="M40.77,113.95l-2.39-2.43c1.06.58,2.05,1.29,2.96,2.13l2.39,2.43c-.91-.84-1.9-1.55-2.96-2.13"/>
              <path class="cls-11" d="M43.73,116.08l-2.39-2.43c.18.16.35.33.52.5l2.39,2.43c-.17-.17-.35-.34-.52-.5"/>
            </g>
          </g>
        </g>
        <g class="cls-20">
          <g class="cls-22">
            <g class="cls-20">
              <path class="cls-16" d="M19.4,139.13l-2.39-2.43c-2.97-3.01-4.37-6.74-4.24-11.2s1.83-8.31,5.1-11.35c.98-.91,2.03-1.69,3.16-2.32l2.39,2.43c-1.13.64-2.18,1.41-3.16,2.32-3.27,3.04-4.96,6.82-5.1,11.35s1.27,8.18,4.24,11.2"/>
              <path class="cls-15" d="M23.42,114.26l-2.39-2.43c.58-.33,1.17-.62,1.79-.87l2.39,2.43c-.62.26-1.21.55-1.79.87"/>
              <path class="cls-13" d="M25.21,113.39l-2.39-2.43c.5-.21,1.01-.39,1.54-.55l2.39,2.43c-.53.16-1.04.34-1.54.55"/>
              <path class="cls-5" d="M26.75,112.84l-2.39-2.43c.49-.15.98-.28,1.49-.38l2.39,2.43c-.51.11-1,.24-1.49.38"/>
              <path class="cls-4" d="M28.24,112.45l-2.39-2.43c.5-.11,1-.19,1.52-.26l2.39,2.43c-.52.07-1.03.15-1.52.26"/>
              <path class="cls-3" d="M29.76,112.2l-2.39-2.43c.53-.07,1.08-.12,1.63-.14l2.39,2.43c-.55.03-1.1.08-1.63.14"/>
              <path class="cls-12" d="M31.39,112.05l-2.39-2.43c.38-.02.77-.03,1.16-.03l2.39,2.43c-.39,0-.78,0-1.16.03"/>
            </g>
          </g>
        </g>
        <path class="cls-17" d="M32.55,112.02c4.79,0,8.69,1.52,11.7,4.56,3.02,3.04,4.45,6.82,4.31,11.35s-1.81,8.32-5.01,11.36c-3.2,3.04-7.19,4.56-11.98,4.56s-8.92-1.52-12-4.56c-3.08-3.04-4.54-6.82-4.4-11.36s1.83-8.31,5.1-11.35,7.35-4.56,12.28-4.56Z"/>
      </g>
    </g>
  </g>
</svg>